<?xml version="1.0" encoding="UTF-8"?>
<svg id="Layer_1" data-name="Layer 1" xmlns="http://www.w3.org/2000/svg" viewBox="0 0 800 800">
  <defs>
    <style>
      .cls-1 {
        fill: #8e8881;
        stroke-width: 0px;
      }
    </style>
  </defs>
  <rect class="cls-1" x="70.29" y="429.41" width="115.06" height="42"/>
  <rect class="cls-1" x="613.49" y="429.41" width="116.23" height="42"/>
  <rect class="cls-1" x="380.69" y="131.51" width="42" height="116.23"/>
  <rect class="cls-1" x="531.38" y="241.56" width="116.23" height="42" transform="translate(-13 493.72) rotate(-45)"/>
  <rect class="cls-1" x="194.35" y="200.4" width="42" height="115.06" transform="translate(-119.31 227.82) rotate(-45)"/>
  <rect class="cls-1" x="234.06" y="646.11" width="333.83" height="37.49"/>
  <path class="cls-1" d="M567.63,617.94H233.34v-146.12c0-92.15,74.99-167.13,167.16-167.13s167.13,74.97,167.13,167.13v146.12ZM275.34,575.94h250.28v-104.12c0-69-56.13-125.13-125.13-125.13s-125.15,56.13-125.15,125.13v104.12Z"/>
  <g>
    <path class="cls-1" d="M434.47,386.53c-4.83-.68-11.96-1.05-14.77,3.89-4.78,8.42,7.01,14.23,12.69,17.01,23.72,11.59,35.37,35,48.14,56.63,1.79,3.04,3.95,6.33,7.38,7.17,4.46,1.1,8.93-2.85,10.02-7.31,1.08-4.47-.31-9.14-1.94-13.43-10.65-28.06-31.73-51.29-59.47-63.25"/>
    <path class="cls-1" d="M434.47,383.38c-6.68-.86-14.95-.47-18.06,6.63-2.93,6.69,1.69,12.37,7.01,16.01,7.22,4.94,15.21,7.92,21.9,13.81,7.23,6.37,13.11,14.04,18.34,22.1,5.29,8.15,9.66,16.88,14.96,25.02,4.07,6.25,11.14,10.47,17.81,4.93,7.36-6.12,5.08-15.97,2.04-23.71-3.35-8.53-7.62-16.68-12.84-24.22-11.93-17.25-28.3-30.99-47.51-39.44-3.68-1.62-6.89,3.81-3.18,5.44,27.09,11.92,49.64,35.45,58.89,63.82,1.28,3.94,2.6,9.48-.83,12.73-4.7,4.46-8.31-1.62-10.54-5.39-3.74-6.35-7.35-12.78-11.25-19.03-7.32-11.72-15.74-22.86-26.95-31.12-5.71-4.21-12.53-6.52-18.18-10.72-3.03-2.25-6.65-6.6-2.24-9.73,2.83-2.01,7.44-1.24,10.63-.83,4.01.52,3.97-5.79,0-6.3h0Z"/>
  </g>
</svg>