<?xml version="1.0" encoding="UTF-8"?>
<svg id="Layer_1" data-name="Layer 1" xmlns="http://www.w3.org/2000/svg" viewBox="0 0 800 800">
  <defs>
    <style>
      .cls-1 {
        fill: #00aa5a;
        stroke-width: 0px;
      }
    </style>
  </defs>
  <path class="cls-1" d="M401.5,342.4c50.96,0,92.42-41.46,92.42-92.42s-41.46-92.42-92.42-92.42-92.42,41.46-92.42,92.42,41.46,92.42,92.42,92.42ZM401.5,197.57c28.9,0,52.42,23.51,52.42,52.42s-23.51,52.42-52.42,52.42-52.42-23.51-52.42-52.42,23.51-52.42,52.42-52.42Z"/>
  <path class="cls-1" d="M215.03,370.61c46.33,0,84.03-37.69,84.03-84.03s-37.69-84.03-84.03-84.03-84.03,37.69-84.03,84.03,37.69,84.03,84.03,84.03ZM215.03,242.56c24.28,0,44.03,19.75,44.03,44.03s-19.75,44.03-44.03,44.03-44.03-19.75-44.03-44.03,19.75-44.03,44.03-44.03Z"/>
  <path class="cls-1" d="M587.05,370.61c46.33,0,84.03-37.69,84.03-84.03s-37.69-84.03-84.03-84.03-84.03,37.69-84.03,84.03,37.69,84.03,84.03,84.03ZM587.05,242.56c24.28,0,44.03,19.75,44.03,44.03s-19.75,44.03-44.03,44.03-44.03-19.75-44.03-44.03,19.75-44.03,44.03-44.03Z"/>
  <path class="cls-1" d="M738.44,637.42c0-.48-.07-9.59-1.06-24.4.03-1.61-.02-3.23-.18-4.85h0c-.19-1.93-.41-3.98-.65-6.13-.06-.74-.13-1.48-.19-2.24h-.06c-3.55-30.54-12.17-80.84-32.63-124.87-28.78-61.95-73.25-94.69-128.62-94.69-24.41,0-46.7,6.29-66.51,18.73-11.16-12.5-23.43-22.71-36.64-30.47-21.12-12.41-44.81-18.71-70.4-18.71s-49.99,6.48-71.35,19.27c-13.26,7.94-25.56,18.36-36.74,31.1-20.27-13.23-43.19-19.92-68.38-19.92-55.37,0-99.85,32.75-128.62,94.69-22.45,48.34-30.64,104.23-33.53,133.24-.08.76-.13,1.52-.16,2.29-1.32,16.31-1.28,26.73-1.28,27.18l.1,19.9h677.03l-.12-20.12ZM169.73,440.18c16.03-13.42,34.12-19.95,55.3-19.95,22.53,0,41.63,7.41,58.4,22.66l16.78,15.26,13.04-18.56c23.55-33.51,52.42-49.81,88.25-49.81s63.86,15.83,87.24,48.38l12.84,17.88,16.57-14.49c16.42-14.35,35.03-21.32,56.91-21.32s39.26,6.52,55.3,19.95c14.2,11.89,26.67,29.25,37.05,51.6,18.5,39.82,26.21,86.4,29.34,114.1.19,2.3.36,4.51.51,6.61-.05.04-.09.05-.15.05H102.98c-.08,0-.11,0-.2-.1-.05-.05-.06-.09-.08-.13.02-.28.04-.54.07-.83h-.02c2.69-26.67,10.13-77.06,29.94-119.7,10.38-22.35,22.85-39.71,37.05-51.6Z"/>
</svg>