<?xml version="1.0" encoding="UTF-8"?>
<svg id="Fill" xmlns="http://www.w3.org/2000/svg" viewBox="0 0 800 800">
  <defs>
    <style>
      .cls-1 {
        fill: #00aa5a;
      }
    </style>
  </defs>
  <path class="cls-1" d="M379.19,649.32c-71.3,0-138.34-27.77-188.76-78.19s-78.19-117.46-78.19-188.76,27.77-138.34,78.19-188.76c50.42-50.42,117.46-78.19,188.76-78.19s138.34,27.77,188.76,78.19c50.42,50.42,78.19,117.46,78.19,188.76s-27.77,138.34-78.19,188.76c-50.42,50.42-117.46,78.19-188.76,78.19Zm0-493.89c-60.62,0-117.61,23.61-160.48,66.47-42.86,42.86-66.47,99.86-66.47,160.48s23.61,117.61,66.47,160.48c42.86,42.86,99.86,66.47,160.48,66.47s117.61-23.61,160.48-66.47c42.86-42.86,66.47-99.86,66.47-160.48s-23.61-117.61-66.47-160.48-99.86-66.47-160.48-66.47Z"/>
  <path class="cls-1" d="M544.46,596.71c31.01,31.01,62.01,62.01,93.02,93.02,4.44,4.44,8.87,8.87,13.31,13.31,8.89,8.89,25.17,9.55,33.94,0,8.79-9.58,9.49-24.45,0-33.94-31.01-31.01-62.01-62.01-93.02-93.02-4.44-4.44-8.87-8.87-13.31-13.31-8.89-8.89-25.17-9.55-33.94,0-8.79,9.58-9.49,24.45,0,33.94h0Z"/>
</svg>