<?xml version="1.0" encoding="UTF-8"?>
<svg id="Layer_3" data-name="Layer 3" xmlns="http://www.w3.org/2000/svg" viewBox="0 0 800 800">
  <defs>
    <style>
      .cls-1 {
        fill: #00aa5a;
      }
    </style>
  </defs>
  <path class="cls-1" d="M400.85,114.32c-157.08,0-284.87,127.79-284.87,284.87,0,63.87-1.41,233.05-1.69,266.32l-.17,20.34,20.34-.17c57.74-.49,199.29-1.62,266.4-1.62,157.08,0,284.87-127.79,284.87-284.87S557.92,114.32,400.85,114.32Zm0,529.73c-60.34,0-180.56,.91-246.39,1.45,.47-56.77,1.53-190.93,1.53-246.32,0-135.02,109.85-244.87,244.87-244.87s244.87,109.85,244.87,244.87-109.85,244.87-244.87,244.87Z"/>
  <path class="cls-1" d="M297.41,376.93c-18.18,0-32.92,15.29-32.92,34.14s14.74,34.14,32.92,34.14,32.92-15.29,32.92-34.14-14.74-34.14-32.92-34.14Z"/>
  <path class="cls-1" d="M395.09,376.93c-18.18,0-32.92,15.29-32.92,34.14s14.74,34.14,32.92,34.14,32.92-15.29,32.92-34.14-14.74-34.14-32.92-34.14Z"/>
  <path class="cls-1" d="M492.78,376.93c-18.18,0-32.92,15.29-32.92,34.14s14.74,34.14,32.92,34.14,32.92-15.29,32.92-34.14-14.74-34.14-32.92-34.14Z"/>
</svg>