<?xml version="1.0" encoding="UTF-8"?>
<svg id="Layer_1" data-name="Layer 1" xmlns="http://www.w3.org/2000/svg" viewBox="0 0 800 800">
  <defs>
    <style>
      .cls-1 {
        fill: #00aa5a;
        stroke-width: 0px;
      }
    </style>
  </defs>
  <path class="cls-1" d="M400,707.06c-80,0-155.21-31.15-211.78-87.72-56.57-56.57-87.72-131.78-87.72-211.78s31.15-155.21,87.72-211.78c56.57-56.57,131.78-87.72,211.78-87.72s155.21,31.15,211.78,87.72c56.57,56.57,87.72,131.78,87.72,211.78s-31.15,155.21-87.72,211.78c-56.57,56.57-131.78,87.72-211.78,87.72ZM400,147.14c-69.56,0-134.96,27.09-184.14,76.27-49.19,49.19-76.27,114.58-76.27,184.14s27.09,134.96,76.27,184.14c49.19,49.19,114.58,76.27,184.14,76.27s134.96-27.09,184.14-76.27c49.19-49.19,76.27-114.58,76.27-184.14s-27.09-134.96-76.27-184.14c-49.19-49.19-114.58-76.27-184.14-76.27Z"/>
  <rect class="cls-1" x="380.46" y="222.67" width="39.08" height="212.12"/>
  <rect class="cls-1" x="374.76" y="397.86" width="162.79" height="39.08"/>
  <circle class="cls-1" cx="400" cy="417.4" r="38.34"/>
</svg>