<?xml version="1.0" encoding="UTF-8"?>
<svg id="Layer_3" data-name="Layer 3" xmlns="http://www.w3.org/2000/svg" viewBox="0 0 800 800">
  <defs>
    <style>
      .cls-1 {
        fill: #00aa5a;
      }
    </style>
  </defs>
  <path class="cls-1" d="M666.04,309.99c-5.43-49.18-28.04-94.61-64.33-128.82-38.86-36.63-89.69-56.81-143.11-56.81-77.69,0-148.19,42.85-184.26,110.56-11.84-2.86-23.87-4.3-35.94-4.3-85.82,0-155.64,69.82-155.64,155.64,0,41,15.82,79.68,44.55,108.93,25.04,25.49,57.44,41.33,92.5,45.49l-55.72,105.61,35.38,18.67,65-123.2,123.01,.02-55.14,104.52,35.38,18.66,64.98-123.17,105.3,.02-55.13,104.49,35.38,18.67,64.97-123.15h6.57s.15,0,.15,0h.15c34.07-.5,66.02-14.13,89.97-38.38,23.98-24.29,37.19-56.46,37.19-90.6,0-40.72-18.96-78.46-51.2-102.84Zm-14.45,165.34c-16.49,16.71-38.49,26.11-61.95,26.49l-353.84-.05c-30.31-.67-58.7-12.96-79.96-34.6-21.33-21.72-33.08-50.45-33.08-80.9,0-63.77,51.87-115.64,115.64-115.64,13.35,0,26.7,2.41,39.68,7.16l17.81,6.52,7.46-17.44c26.62-62.27,87.56-102.51,155.25-102.51,88.81,0,162.77,69.37,168.38,157.93l.64,10.1,8.52,5.47c25.75,16.52,41.12,44.55,41.12,74.97,0,23.55-9.11,45.75-25.65,62.5Z"/>
</svg>