<?xml version="1.0" encoding="UTF-8"?>
<svg id="Fill" xmlns="http://www.w3.org/2000/svg" viewBox="0 0 800 800">
  <defs>
    <style>
      .cls-1 {
        fill: #fff;
      }
    </style>
  </defs>
  <path class="cls-1" d="M355.31,669.33H78.6v-220.41c0-94.33,21.13-169.34,62.79-222.94,43.29-55.68,107.93-87.72,192.13-95.23l18.55-1.65,21.81,135.25-18.89,3.78c-35.29,7.06-58.33,19.52-72.51,39.22-12.58,17.47-19.49,41.85-21.36,75.82h94.16v286.17Zm-236.7-40h196.7v-206.17h-94.68v-20c0-53.45,9.35-91.32,29.41-119.19,17.52-24.34,42.69-40.67,78.35-50.61l-9.78-60.62c-63.63,9.14-112.57,35.26-145.63,77.79-36.08,46.42-54.37,113.16-54.37,198.39v180.41Z"/>
  <path class="cls-1" d="M705.62,669.33H428.91v-220.41c0-94.33,21.13-169.34,62.79-222.94,43.29-55.68,107.93-87.72,192.13-95.23l18.55-1.65,21.81,135.25-18.89,3.78c-35.29,7.06-58.33,19.52-72.51,39.22-12.58,17.47-19.49,41.85-21.36,75.82h94.16v286.17Zm-236.7-40h196.7v-206.17h-94.68v-20c0-53.45,9.35-91.32,29.41-119.19,17.52-24.34,42.69-40.67,78.35-50.61l-9.78-60.62c-63.63,9.14-112.57,35.26-145.63,77.79-36.08,46.42-54.37,113.16-54.37,198.39v180.41Z"/>
</svg>