<?xml version="1.0" encoding="UTF-8"?>
<svg xmlns="http://www.w3.org/2000/svg" viewBox="0 0 800 800">
  <defs>
    <style>
      .cls-1 {
        fill: #fff;
      }
    </style>
  </defs>
  <g id="Fill">
    <rect class="cls-1" x="617.01" y="256.86" width="97.09" height="35.08" transform="translate(-49.35 359.09) rotate(-29.16)"/>
    <rect class="cls-1" x="535.21" y="172.9" width="97.09" height="35.09" transform="translate(241.21 700.06) rotate(-74.16)"/>
    <rect class="cls-1" x="676.51" y="339.56" width="35.09" height="97.09" transform="translate(131.26 949.88) rotate(-74.16)"/>
  </g>
  <g id="Layer_3" data-name="Layer 3">
    <path class="cls-1" d="M142.06,676.55c-17.32,0-34.09-8.95-43.69-25.08-13.11-22.01-26.59-45.43-40.08-69.62-12.25-21.96-6.64-49.15,13.34-64.64,16.06-12.46,37.54-13.78,55.06-4.47,3.36-3.54,6.63-7.01,9.92-10.53l63.8-68.44c61.15-65.6,124.38-133.44,186.63-200.11,5.89-6.31,15.16-8.16,23.07-4.6,5.91,2.66,9.07,6.6,17.64,19.74,4.85,7.44,11.41,17.93,19.49,31.19,14.93,24.51,34.39,57.33,54.77,92.43,20.41,35.14,39.29,68.3,53.16,93.38,7.52,13.6,13.39,24.5,17.45,32.41,7.17,13.96,9.02,18.66,8.41,25.11-.82,8.63-7.01,15.78-15.41,17.78-21.54,5.12-43.44,10.12-64.62,14.96-6.06,1.38-12.11,2.77-18.17,4.15-2.64,.6-5.28,1.22-7.92,1.83-8.42,1.96-17.12,3.98-25.89,5.73-5.94,1.23-151.41,35.07-161.14,37.38-18.69,4.44-37.69,8.81-56.06,13.04-8.65,1.99-17.31,3.99-25.96,5.99-4.51,1.04-9.01,2.11-13.55,3.18-.17,5.8-1.09,11.15-2.77,16.12-3.81,11.28-11.33,20.15-22.36,26.39-7.99,4.52-16.62,6.67-25.12,6.67Zm-39.6-129.88c-2.25,0-4.46,.71-6.32,2.15-4.51,3.5-5.63,8.69-2.92,13.55,13.3,23.85,26.6,46.94,39.51,68.63,3.15,5.29,9.5,7.03,14.76,4.05,3.04-1.72,6.83-3.86,3.73-19.18l-3.84-18.97,18.84-4.45c3.31-.78,6.59-1.56,9.83-2.33,7-1.66,13.88-3.3,20.76-4.89,8.67-2.01,17.34-4.01,26.01-6,18.31-4.22,37.24-8.57,55.79-12.98,1.39-.33,155.95-36.37,162.57-37.69,8.14-1.62,16.15-3.48,24.63-5.46,2.68-.62,5.36-1.25,8.04-1.86,6.06-1.39,12.13-2.77,18.2-4.16,13.29-3.04,26.87-6.14,40.44-9.29-26.92-50.37-102.56-180.59-132.97-228.93-56.81,60.86-114.21,122.45-169.89,182.18l-63.8,68.44c-5.06,5.43-10.27,10.9-15.3,16.19-2.4,2.52-4.81,5.05-7.23,7.61l-13.56,14.32-16.31-15.01c-1.06-.97-1.89-1.74-2.72-2.5-2.44-2.27-5.41-3.43-8.29-3.43ZM387.86,261.42s0,0,0,0c0,0,0,0,0,0Z"/>
    <rect class="cls-1" x="129.82" y="533.89" width="40" height="83.69" transform="translate(-268.8 153.04) rotate(-30.14)"/>
    <path class="cls-1" d="M602.09,565.57c-5.13,0-10.29-.67-15.37-2.04-15.23-4.08-27.96-13.85-35.84-27.5L383.33,245.83c-16.27-28.19-6.58-64.36,21.6-80.63,13.65-7.88,29.56-9.98,44.79-5.9,15.23,4.08,27.96,13.85,35.84,27.5l167.55,290.21c16.27,28.19,6.58,64.36-21.6,80.63-9.09,5.25-19.19,7.93-29.42,7.93ZM434.41,197.29c-3.23,0-6.49,.82-9.48,2.54-4.4,2.54-7.55,6.64-8.86,11.55-1.32,4.91-.64,10.04,1.9,14.44l167.55,290.21c2.54,4.4,6.64,7.55,11.55,8.86s10.04,.64,14.44-1.9c9.08-5.25,12.21-16.9,6.96-25.99L450.92,206.8c-3.52-6.1-9.93-9.51-16.51-9.51Z"/>
    <path class="cls-1" d="M316.44,684.12c-42.67,0-77.38-34.71-77.38-77.38,0-6.37,.78-12.7,2.32-18.82l38.79,9.75c-.74,2.93-1.11,5.98-1.11,9.07,0,20.61,16.77,37.38,37.38,37.38s37.37-16.77,37.37-37.38c0-8.86-3.15-17.44-8.88-24.18l30.48-25.91c11.87,13.96,18.4,31.75,18.4,50.09,0,42.67-34.71,77.38-77.37,77.38Z"/>
  </g>
</svg>