<?xml version="1.0" encoding="UTF-8"?>
<svg id="Layer_1" data-name="Layer 1" xmlns="http://www.w3.org/2000/svg" viewBox="0 0 800 800">
  <defs>
    <style>
      .cls-1 {
        fill: #fff;
        stroke-width: 0px;
      }
    </style>
  </defs>
  <path class="cls-1" d="M673.95,225.43c-14.64-22.85-35.11-42.38-59.18-56.5-20.96-12.28-44.42-20.22-67.84-22.96-31.8-3.74-63.97,1.38-93.02,14.82-19.6,9.06-36.74,21.38-50.92,36.59l-2.98,3.04-2.95-3c-14.21-15.25-31.36-27.57-50.95-36.63-29.05-13.44-61.22-18.56-93.02-14.82-23.42,2.75-46.88,10.69-67.85,22.96-24.07,14.11-44.53,33.65-59.18,56.49-28,43.69-35.16,99.25-19.15,148.62,19.81,61.02,70.84,104.66,111.85,139.73l9.77,8.35c51.89,44.34,105.54,90.2,157.62,135.88l13.85,12.32,13.83-12.3c52.12-45.71,105.77-91.56,157.65-135.9l9.77-8.35c41-35.07,92.04-78.71,111.85-139.73,16.01-49.37,8.86-104.93-19.15-148.62ZM654.71,361.59c-16.33,50.26-62.59,89.8-99.77,121.57l-9.1,7.78c-43.59,37.25-130.74,112.56-145.85,125.62-15.09-13.05-102.16-88.28-145.85-125.62l-9.1-7.79c-37.18-31.77-83.45-71.31-99.76-121.57-12.33-37.99-6.82-80.76,14.73-114.39,11.23-17.52,27-32.54,45.62-43.45,16.13-9.46,34.17-15.59,52.16-17.71,5.07-.6,10.24-.9,15.36-.9,22.02,0,43.84,5.5,63.09,15.91,19.38,10.47,35.25,25.45,45.92,43.3l17.32,29.01.52-.88.52.88,17.32-29.01c24.35-40.77,74.33-64.2,124.36-58.31,17.99,2.12,36.03,8.25,52.16,17.71,18.62,10.91,34.39,25.93,45.62,43.45,21.55,33.63,27.06,76.4,14.73,114.39Z"/>
</svg>