<?xml version="1.0" encoding="UTF-8"?>
<svg id="Fill" xmlns="http://www.w3.org/2000/svg" viewBox="0 0 800 800">
  <defs>
    <style>
      .cls-1 {
        fill: #e1ff7d;
      }
    </style>
  </defs>
  <path class="cls-1" d="M569.16,186.41c-48.52-48.51-113.02-75.23-181.62-75.23s-133.11,26.72-181.63,75.23c-48.51,48.52-75.23,113.02-75.23,181.62s26.72,133.11,75.23,181.63c24.3,24.3,52.61,43.13,83.44,55.87-2.34-12.18-3.7-24.88-3.99-37.83-20.55-10.53-39.54-24.34-56.34-41.14-42.34-42.34-65.67-98.64-65.67-158.53s23.32-116.18,65.67-158.52c42.34-42.35,98.64-65.67,158.53-65.67s116.18,23.32,158.52,65.67c42.34,42.34,65.67,98.64,65.67,158.52s-23.32,116.19-65.67,158.53c-16.81,16.8-35.79,30.61-56.34,41.14-.29,12.95-1.65,25.65-3.99,37.83,30.83-12.74,59.14-31.57,83.44-55.87,48.51-48.52,75.23-113.02,75.23-181.63s-26.72-133.11-75.23-181.62Z"/>
  <path class="cls-1" d="M387.53,208.98c-88.8,0-161.04,72.24-161.04,161.03,0,52.82,25.57,99.78,64.97,129.16,3.63-10.25,8-19.89,13.06-28.71,.69-1.2,1.38-2.37,2.09-3.53-27.72-23.19-45.38-58.03-45.38-96.92,0-69.64,56.66-126.3,126.3-126.3s126.29,56.66,126.29,126.3c0,38.89-17.66,73.73-45.38,96.92,.71,1.16,1.41,2.34,2.09,3.53,5.07,8.82,9.44,18.46,13.06,28.72,39.4-29.38,64.97-76.34,64.97-129.17,0-88.79-72.24-161.03-161.03-161.03Z"/>
  <ellipse class="cls-1" cx="387.53" cy="578.62" rx="66.32" ry="132.09"/>
  <circle class="cls-1" cx="387.53" cy="368.04" r="63.27"/>
</svg>