<?xml version="1.0" encoding="UTF-8"?>
<svg id="Fill" xmlns="http://www.w3.org/2000/svg" viewBox="0 0 800 800">
  <defs>
    <style>
      .cls-1 {
        fill: #e1ff7d;
      }
    </style>
  </defs>
  <path class="cls-1" d="M456.87,706.96h-155.65v-160.28h155.65v160.28Zm-115.65-40h75.65v-80.28h-75.65v80.28Zm112.57-153.05h-149.48v-20c0-100.27,59.05-145.71,102.17-178.89,26.04-20.04,42-33.07,42-47.78,0-25.07-27.85-33.97-51.7-33.97-37.17,0-64.46,40.24-66.36,97.85l-.72,21.73-158.4-18.51,.4-18.19c1.54-71.06,27.46-129.79,74.95-169.83,40.75-34.36,95.71-53.28,154.76-53.28,53.99,0,104.94,15.5,143.45,43.66,43.2,31.58,66.99,77.12,66.99,128.23,0,32.14-10.75,61.54-32.88,89.87-18.32,23.46-41.34,42.51-63.6,60.94-33.04,27.34-61.57,50.95-61.57,78.18v20Zm-108.47-40h71c9.16-35.71,41.82-62.73,73.55-88.99,40.3-33.35,81.98-67.84,81.98-119.99,0-48.73-27.51-79.07-50.59-95.94-31.25-22.85-74.94-35.95-119.84-35.95-49.62,0-95.42,15.58-128.97,43.86-18.27,15.4-32.67,34.38-42.82,56.4-9,19.54-14.67,41.55-16.9,65.6l79.47,9.29c3.83-29.21,13.47-54.7,28.33-74.6,19.41-26,46.49-40.32,76.26-40.32,25.78,0,48.09,6.66,64.51,19.26,17.54,13.46,27.19,32.89,27.19,54.71,0,35.15-27.98,56.68-57.61,79.48-37.05,28.51-78.62,60.5-85.56,127.19Z"/>
</svg>