<?xml version="1.0" encoding="UTF-8"?>
<svg id="Layer_3" data-name="Layer 3" xmlns="http://www.w3.org/2000/svg" viewBox="0 0 800 800">
  <defs>
    <style>
      .cls-1 {
        fill: #e1ff7d;
      }
    </style>
  </defs>
  <path class="cls-1" d="M400,268.89c-72.3,0-131.11,58.82-131.11,131.11s58.82,131.11,131.11,131.11,131.11-58.82,131.11-131.11-58.82-131.11-131.11-131.11Zm0,222.22c-50.24,0-91.11-40.87-91.11-91.11s40.87-91.11,91.11-91.11,91.11,40.87,91.11,91.11-40.87,91.11-91.11,91.11Z"/>
  <rect class="cls-1" x="380" y="593.15" width="40" height="109.58"/>
  <rect class="cls-1" x="380" y="97.26" width="40" height="110.69"/>
  <rect class="cls-1" x="97.26" y="380" width="109.58" height="40"/>
  <rect class="cls-1" x="592.05" y="380" width="110.69" height="40"/>
  <rect class="cls-1" x="169.89" y="555.32" width="109.58" height="40" transform="translate(-341 327.37) rotate(-45)"/>
  <rect class="cls-1" x="519.59" y="205.07" width="110.69" height="40" transform="translate(9.24 472.45) rotate(-45)"/>
  <rect class="cls-1" x="204.68" y="169.88" width="40" height="109.58" transform="translate(-93.06 224.68) rotate(-45)"/>
  <rect class="cls-1" x="554.93" y="519.59" width="40" height="110.69" transform="translate(-238.14 574.93) rotate(-45)"/>
</svg>