<?xml version="1.0" encoding="UTF-8"?>
<svg id="Layer_3" data-name="Layer 3" xmlns="http://www.w3.org/2000/svg" viewBox="0 0 800 800">
  <defs>
    <style>
      .cls-1 {
        fill: #e1ff7d;
      }
    </style>
  </defs>
  <path class="cls-1" d="M400,95.15c-168.1,0-304.85,136.76-304.85,304.85s136.76,304.86,304.85,304.86,304.85-136.76,304.85-304.86S568.1,95.15,400,95.15Zm243.31,200.26h-118.68c-9.86-61.84-28.21-114.35-51.78-150.07,76.7,21.97,139.25,77.73,170.47,150.07Zm21.55,104.59c0,23.35-3.05,46-8.75,67.59h-126.72c2.15-21.75,3.29-44.37,3.29-67.59s-1.04-43.77-3.01-64.59h127.21c5.2,20.68,7.98,42.32,7.98,64.59Zm-264.85,264.86c-13.42,0-36.65-17.64-57.93-67.35-11.16-26.08-19.83-56.58-25.71-89.92h167.29c-5.88,33.33-14.55,63.84-25.71,89.92-21.28,49.71-44.51,67.35-57.93,67.35Zm-89.22-197.26c-2.28-21.81-3.45-44.47-3.45-67.59s1.07-43.7,3.15-64.59h179.04c2.08,20.89,3.15,42.53,3.15,64.59s-1.18,45.78-3.45,67.59h-178.44Zm-175.64-67.59c0-22.27,2.78-43.91,7.98-64.59h127.21c-1.96,20.83-3.01,42.43-3.01,64.59s1.14,45.84,3.29,67.59h-126.72c-5.7-21.59-8.75-44.24-8.75-67.59ZM400,135.15c13.42,0,36.65,17.64,57.93,67.35,11.5,26.85,20.34,58.41,26.22,92.91h-168.31c5.89-34.5,14.73-66.06,26.22-92.91,21.28-49.71,44.51-67.35,57.93-67.35Zm-72.84,10.19c-23.57,35.72-41.92,88.23-51.78,150.07h-118.68c31.22-72.34,93.77-128.1,170.47-150.07ZM158.01,507.59h117.87c9.97,60.54,28.1,111.94,51.29,147.08-75.64-21.66-137.52-76.2-169.16-147.08Zm314.83,147.08c23.19-35.14,41.32-86.54,51.29-147.08h117.87c-31.64,70.88-93.52,125.41-169.16,147.08Z"/>
</svg>