<?xml version="1.0" encoding="UTF-8"?>
<svg id="Layer_1" data-name="Layer 1" xmlns="http://www.w3.org/2000/svg" viewBox="0 0 800 800">
  <defs>
    <style>
      .cls-1 {
        fill: #e1ff7d;
        stroke-width: 0px;
      }
    </style>
  </defs>
  <path class="cls-1" d="M400,707.06c101.44,0,183.98-82.46,183.98-183.81,0-34.65-20.34-94.89-62.18-184.18-39.69-84.7-86.28-168.4-104.46-200.46l-17.33-30.55-17.33,30.55c-18.19,32.05-64.77,115.75-104.46,200.46-41.84,89.29-62.18,149.53-62.18,184.18,0,101.35,82.53,183.81,183.98,183.81ZM400,189.22c74.28,134.28,144.12,282.49,144.12,334.03,0,79.37-64.65,143.95-144.12,143.95s-144.12-64.58-144.12-143.95c0-51.54,69.83-199.74,144.12-334.03Z"/>
  <ellipse class="cls-1" cx="302.14" cy="502.41" rx="64.92" ry="24.16" transform="translate(-242.8 718.62) rotate(-80.62)"/>
</svg>