<?xml version="1.0" encoding="utf-8"?>
<!-- Generator: Adobe Illustrator 26.5.3, SVG Export Plug-In . SVG Version: 6.00 Build 0)  -->
<svg version="1.1" id="Layer_3" xmlns="http://www.w3.org/2000/svg" xmlns:xlink="http://www.w3.org/1999/xlink" x="0px" y="0px"
	 viewBox="0 0 800 800" style="enable-background:new 0 0 800 800;" xml:space="preserve">
<style type="text/css">
	.st0{fill:#FFC8C8;}
</style>
<path class="st0" d="M666,310c-5.4-49.2-28-94.6-64.3-128.8c-38.9-36.6-89.7-56.8-143.1-56.8c-77.7,0-148.2,42.9-184.3,110.6
	c-11.8-2.9-23.9-4.3-35.9-4.3c-85.8,0-155.6,69.8-155.6,155.6c0,41,15.8,79.7,44.6,108.9c25,25.5,57.4,41.3,92.5,45.5l-55.7,105.6
	l35.4,18.7l65-123.2l123,0l-55.1,104.5l35.4,18.7l65-123.2l105.3,0l-55.1,104.5l35.4,18.7l65-123.2h6.6h0.2h0.2
	c34.1-0.5,66-14.1,90-38.4c24-24.3,37.2-56.5,37.2-90.6C717.3,372.1,698.3,334.4,666,310L666,310z M651.6,475.3
	c-16.5,16.7-38.5,26.1-62,26.5l-353.8,0c-30.3-0.7-58.7-13-80-34.6c-21.3-21.7-33.1-50.5-33.1-80.9c0-63.8,51.9-115.6,115.6-115.6
	c13.4,0,26.7,2.4,39.7,7.2l17.8,6.5l7.5-17.4c26.6-62.3,87.6-102.5,155.2-102.5c88.8,0,162.8,69.4,168.4,157.9l0.6,10.1l8.5,5.5
	c25.8,16.5,41.1,44.5,41.1,75C677.3,436.4,668.2,458.6,651.6,475.3L651.6,475.3z"/>
</svg>
