<?xml version="1.0" encoding="utf-8"?>
<!-- Generator: Adobe Illustrator 26.5.3, SVG Export Plug-In . SVG Version: 6.00 Build 0)  -->
<svg version="1.1" id="Fill" xmlns="http://www.w3.org/2000/svg" xmlns:xlink="http://www.w3.org/1999/xlink" x="0px" y="0px"
	 viewBox="0 0 800 800" style="enable-background:new 0 0 800 800;" xml:space="preserve">
<style type="text/css">
	.st0{fill:#FFC8C8;}
</style>
<path class="st0" d="M456.9,707H301.2V546.7h155.6V707L456.9,707z M341.2,667h75.6v-80.3h-75.6V667L341.2,667z M453.8,513.9H304.3
	v-20c0-100.3,59-145.7,102.2-178.9c26-20,42-33.1,42-47.8c0-25.1-27.9-34-51.7-34c-37.2,0-64.5,40.2-66.4,97.9l-0.7,21.7
	l-158.4-18.5l0.4-18.2c1.5-71.1,27.5-129.8,74.9-169.8C287.4,112,342.4,93,401.4,93c54,0,104.9,15.5,143.5,43.7
	c43.2,31.6,67,77.1,67,128.2c0,32.1-10.8,61.5-32.9,89.9c-18.3,23.5-41.3,42.5-63.6,60.9c-33,27.3-61.6,51-61.6,78.2L453.8,513.9
	L453.8,513.9z M345.3,473.9h71c9.2-35.7,41.8-62.7,73.5-89c40.3-33.4,82-67.8,82-120c0-48.7-27.5-79.1-50.6-95.9
	C490,146.1,446.3,133,401.4,133c-49.6,0-95.4,15.6-129,43.9c-18.3,15.4-32.7,34.4-42.8,56.4c-9,19.5-14.7,41.5-16.9,65.6l79.5,9.3
	c3.8-29.2,13.5-54.7,28.3-74.6c19.4-26,46.5-40.3,76.3-40.3c25.8,0,48.1,6.7,64.5,19.3c17.5,13.5,27.2,32.9,27.2,54.7
	c0,35.1-28,56.7-57.6,79.5C393.8,375.2,352.3,407.2,345.3,473.9L345.3,473.9z"/>
</svg>
