<?xml version="1.0" encoding="utf-8"?>
<!-- Generator: Adobe Illustrator 26.5.3, SVG Export Plug-In . SVG Version: 6.00 Build 0)  -->
<svg version="1.1" id="Fill" xmlns="http://www.w3.org/2000/svg" xmlns:xlink="http://www.w3.org/1999/xlink" x="0px" y="0px"
	 viewBox="0 0 800 800" style="enable-background:new 0 0 800 800;" xml:space="preserve">
<style type="text/css">
	.st0{fill:#FFC8C8;}
</style>
<path class="st0" d="M377.3,710.2c-37.9,0-75.8-11.8-111.1-35.2c-27.5-18.2-50.6-41.3-68.6-68.8c-17.5-26.6-29.3-55.9-35.2-87.1
	c-11.7-61.9,1.6-124,37.3-174.8c12.8-18.2,27.8-34.2,42.3-49.7c15.6-16.7,30.4-32.5,42.1-50.3c16.2-24.7,24.7-49.5,25.4-73.7
	c0.7-26.4-4.4-48.8-7.1-60.9c-2.2-9.9-4.2-18.4,3.3-26.6l0,0c3-3.3,11.7-10.5,26.5-5c3.3,1.2,7,3.1,11.5,5.7
	c6.9,4.1,14.4,9.2,19.3,12.6c0.9,0.6,1.7,1.2,2.4,1.6c74.5,51,129.5,104,168.3,162c48,71.8,70.5,152.7,63.3,227.8
	c-8.4,87.7-62.2,167.5-136.9,203.1C433.1,703.8,405.2,710.2,377.3,710.2L377.3,710.2z M347.5,134.3c1.4,11.1,2.3,23.8,2,37.4
	c-0.9,31.7-11.6,63.5-31.9,94.5c-13.6,20.7-30.2,38.5-46.4,55.7c-14.2,15.2-27.6,29.5-38.8,45.4c-29.5,42-40.4,93.3-30.7,144.4
	c10,52.8,41.5,100.2,86.5,129.9c25.8,17,52.7,26.5,80.2,28.2c25.3,1.5,50.3-3.5,74.4-15c30-14.3,56.7-37.8,77.1-68
	c20.8-30.8,33.7-66.3,37.2-102.9c6.3-65.9-13.8-137.6-56.8-201.7C465.4,229.8,415.3,181.3,347.5,134.3L347.5,134.3z"/>
</svg>
