<?xml version="1.0" encoding="UTF-8"?>
<svg id="Layer_1" data-name="Layer 1" xmlns="http://www.w3.org/2000/svg" viewBox="0 0 800 800">
  <defs>
    <style>
      .cls-1 {
        fill: #ffc8c8;
        stroke-width: 0px;
      }
    </style>
  </defs>
  <path class="cls-1" d="M400.98,108.06c-164.63,0-298.57,133.93-298.57,298.56,0,66.94-1.48,244.26-1.78,279.12l-.18,21.32,21.32-.18c60.52-.51,208.87-1.69,279.2-1.69,164.63,0,298.57-133.94,298.57-298.57S565.61,108.06,400.98,108.06ZM400.98,663.26c-63.24,0-189.25.95-258.24,1.52.49-59.5,1.6-200.11,1.6-258.16,0-141.51,115.13-256.64,256.64-256.64s256.64,115.13,256.64,256.64-115.13,256.64-256.64,256.64Z"/>
  <path class="cls-1" d="M327.27,501.49h70.74l-15.56,73.57h-70.74l15.56-73.57ZM359.34,338.78l19.81-93.86h75.46l-19.81,93.86-39.15,134.42h-53.29l16.98-134.42Z"/>
</svg>