<?xml version="1.0" encoding="utf-8"?>
<!-- Generator: Adobe Illustrator 26.5.3, SVG Export Plug-In . SVG Version: 6.00 Build 0)  -->
<svg version="1.1" id="Fill" xmlns="http://www.w3.org/2000/svg" xmlns:xlink="http://www.w3.org/1999/xlink" x="0px" y="0px"
	 viewBox="0 0 800 800" style="enable-background:new 0 0 800 800;" xml:space="preserve">
<style type="text/css">
	.st0{fill:#FFC8C8;}
</style>
<path class="st0" d="M355.3,669.3H78.6V448.9c0-94.3,21.1-169.3,62.8-222.9c43.3-55.7,107.9-87.7,192.1-95.2l18.5-1.6l21.8,135.2
	l-18.9,3.8c-35.3,7.1-58.3,19.5-72.5,39.2c-12.6,17.5-19.5,41.9-21.4,75.8h94.2L355.3,669.3L355.3,669.3z M118.6,629.3h196.7V423.2
	h-94.7v-20c0-53.5,9.4-91.3,29.4-119.2c17.5-24.3,42.7-40.7,78.4-50.6l-9.8-60.6C255,181.9,206,208,173,250.5
	c-36.1,46.4-54.4,113.2-54.4,198.4L118.6,629.3L118.6,629.3z"/>
<path class="st0" d="M705.6,669.3H428.9V448.9c0-94.3,21.1-169.3,62.8-222.9c43.3-55.7,107.9-87.7,192.1-95.2l18.5-1.6l21.8,135.2
	l-18.9,3.8c-35.3,7.1-58.3,19.5-72.5,39.2c-12.6,17.5-19.5,41.9-21.4,75.8h94.2L705.6,669.3L705.6,669.3z M468.9,629.3h196.7V423.2
	h-94.7v-20c0-53.5,9.3-91.3,29.4-119.2c17.5-24.3,42.7-40.7,78.3-50.6l-9.8-60.6c-63.6,9.1-112.6,35.3-145.6,77.8
	c-36.1,46.4-54.4,113.2-54.4,198.4L468.9,629.3L468.9,629.3z"/>
</svg>
