<?xml version="1.0" encoding="utf-8"?>
<!-- Generator: Adobe Illustrator 26.5.3, SVG Export Plug-In . SVG Version: 6.00 Build 0)  -->
<svg version="1.1" id="Layer_3" xmlns="http://www.w3.org/2000/svg" xmlns:xlink="http://www.w3.org/1999/xlink" x="0px" y="0px"
	 viewBox="0 0 800 800" style="enable-background:new 0 0 800 800;" xml:space="preserve">
<style type="text/css">
	.st0{fill:#FFC8C8;}
</style>
<path class="st0" d="M302,127.7c-18.5-21.6-39.2-32.5-61.5-32.5c-18.8,0-37.8,9.3-55,26.9c-15.2,15.6-29,37.4-40.8,64.6
	c-24.9,57.2-38.6,133-38.6,213.4c0,70.2,12.1,143.1,33.2,199.9c11.3,30.5,24.7,54.9,39.7,72.4c18.5,21.6,39.2,32.5,61.5,32.5
	c18.8,0,37.8-9.3,55-26.9c15.2-15.6,29-37.4,40.8-64.6c24.9-57.2,38.6-133,38.6-213.4c0-70.2-12.1-143.1-33.2-199.9
	C330.4,169.6,317,145.2,302,127.7L302,127.7z M240.5,664.8c-21.6,0-45.4-29.5-63.7-78.9c-19.2-51.8-30.7-121.3-30.7-186
	c0-75,12.5-145.1,35.2-197.4c21.6-49.8,45.4-67.4,59.1-67.4c21.6,0,45.4,29.5,63.7,78.9c18.1,48.9,29.4,113.6,30.5,175.1
	c-3.1-42.5-24.4-75.4-50.1-75.4c-27.9,0-50.6,38.6-50.6,86.2s22.6,86.2,50.6,86.2c25.8,0,47.1-33,50.2-75.6
	c-1.1,71-13.5,137-35.1,186.8C278,647.2,254.3,664.9,240.5,664.8L240.5,664.8z"/>
<path class="st0" d="M660.7,200.1c-11.3-30.5-24.7-54.9-39.7-72.4c-18.5-21.6-39.2-32.5-61.5-32.5c-18.8,0-37.8,9.3-55,26.9
	c-15.2,15.6-29,37.4-40.8,64.6c-24.9,57.2-38.6,133-38.6,213.4c0,70.2,12.1,143.1,33.2,199.9c11.3,30.5,24.7,54.9,39.7,72.4
	c18.5,21.6,39.2,32.5,61.5,32.5c18.8,0,37.8-9.3,55-26.9c15.2-15.6,29-37.4,40.8-64.6c24.9-57.2,38.6-133,38.6-213.4
	C693.9,329.8,681.8,256.9,660.7,200.1L660.7,200.1z M618.6,597.4c-21.6,49.8-45.4,67.5-59.1,67.5c-21.6,0-45.4-29.5-63.7-78.9
	c-19.2-51.8-30.7-121.3-30.7-186c0-75,12.5-145.1,35.2-197.4c21.6-49.8,45.4-67.4,59.1-67.4c21.6,0,45.4,29.5,63.7,78.9
	c18,48.6,29.2,112.9,30.5,174.1c-3.4-42-24.5-74.3-50.1-74.3c-27.9,0-50.6,38.6-50.6,86.2s22.6,86.2,50.6,86.2
	c25.6,0,46.8-32.5,50.1-74.5C652.5,482.2,640.2,547.8,618.6,597.4L618.6,597.4z"/>
</svg>
