<?xml version="1.0" encoding="utf-8"?>
<!-- Generator: Adobe Illustrator 26.5.3, SVG Export Plug-In . SVG Version: 6.00 Build 0)  -->
<svg version="1.1" id="Fill" xmlns="http://www.w3.org/2000/svg" xmlns:xlink="http://www.w3.org/1999/xlink" x="0px" y="0px"
	 viewBox="0 0 800 800" style="enable-background:new 0 0 800 800;" xml:space="preserve">
<style type="text/css">
	.st0{fill:#FFC8C8;}
</style>
<path class="st0" d="M569.2,186.4c-48.5-48.5-113-75.2-181.6-75.2s-133.1,26.7-181.6,75.2c-48.5,48.5-75.2,113-75.2,181.6
	s26.7,133.1,75.2,181.6c24.3,24.3,52.6,43.1,83.4,55.9c-2.3-12.2-3.7-24.9-4-37.8c-20.5-10.5-39.5-24.3-56.3-41.1
	c-42.3-42.3-65.7-98.6-65.7-158.5s23.3-116.2,65.7-158.5c42.3-42.3,98.6-65.7,158.5-65.7s116.2,23.3,158.5,65.7
	c42.3,42.3,65.7,98.6,65.7,158.5s-23.3,116.2-65.7,158.5c-16.8,16.8-35.8,30.6-56.3,41.1c-0.3,13-1.6,25.7-4,37.8
	c30.8-12.7,59.1-31.6,83.4-55.9c48.5-48.5,75.2-113,75.2-181.6S617.7,234.9,569.2,186.4L569.2,186.4z"/>
<path class="st0" d="M387.5,209c-88.8,0-161,72.2-161,161c0,52.8,25.6,99.8,65,129.2c3.6-10.2,8-19.9,13.1-28.7
	c0.7-1.2,1.4-2.4,2.1-3.5c-27.7-23.2-45.4-58-45.4-96.9c0-69.6,56.7-126.3,126.3-126.3S513.8,300.4,513.8,370
	c0,38.9-17.7,73.7-45.4,96.9c0.7,1.2,1.4,2.3,2.1,3.5c5.1,8.8,9.4,18.5,13.1,28.7c39.4-29.4,65-76.3,65-129.2
	C548.6,281.2,476.3,209,387.5,209L387.5,209z"/>
<ellipse class="st0" cx="387.5" cy="578.6" rx="66.3" ry="132.1"/>
<circle class="st0" cx="387.5" cy="368" r="63.3"/>
</svg>
