<?xml version="1.0" encoding="utf-8"?>
<!-- Generator: Adobe Illustrator 26.5.3, SVG Export Plug-In . SVG Version: 6.00 Build 0)  -->
<svg version="1.1" id="Layer_1" xmlns="http://www.w3.org/2000/svg" xmlns:xlink="http://www.w3.org/1999/xlink" x="0px" y="0px"
	 viewBox="0 0 800 800" style="enable-background:new 0 0 800 800;" xml:space="preserve">
<style type="text/css">
	.st0{fill:#235537;}
</style>
<g id="Fill">
	
		<rect x="617" y="256.9" transform="matrix(0.8733 -0.4873 0.4873 0.8733 -49.361 359.0716)" class="st0" width="97.1" height="35.1"/>
	<rect x="535.2" y="172.9" transform="matrix(0.273 -0.962 0.962 0.273 241.2 700.0627)" class="st0" width="97.1" height="35.1"/>
	
		<rect x="676.5" y="339.6" transform="matrix(0.273 -0.962 0.962 0.273 131.247 949.8933)" class="st0" width="35.1" height="97.1"/>
</g>
<g id="Layer_3">
	<path class="st0" d="M142.1,676.5c-17.3,0-34.1-9-43.7-25.1c-13.1-22-26.6-45.4-40.1-69.6c-12.2-22-6.6-49.2,13.3-64.6
		c16.1-12.5,37.5-13.8,55.1-4.5c3.4-3.5,6.6-7,9.9-10.5l63.8-68.4c61.2-65.6,124.4-133.4,186.6-200.1c5.9-6.3,15.2-8.2,23.1-4.6
		c5.9,2.7,9.1,6.6,17.6,19.7c4.9,7.4,11.4,17.9,19.5,31.2c14.9,24.5,34.4,57.3,54.8,92.4c20.4,35.1,39.3,68.3,53.2,93.4
		c7.5,13.6,13.4,24.5,17.5,32.4c7.2,14,9,18.7,8.4,25.1c-0.8,8.6-7,15.8-15.4,17.8c-21.5,5.1-43.4,10.1-64.6,15
		c-6.1,1.4-12.1,2.8-18.2,4.2c-2.6,0.6-5.3,1.2-7.9,1.8c-8.4,2-17.1,4-25.9,5.7c-5.9,1.2-151.4,35.1-161.1,37.4
		c-18.7,4.4-37.7,8.8-56.1,13c-8.6,2-17.3,4-26,6c-4.5,1-9,2.1-13.6,3.2c-0.2,5.8-1.1,11.2-2.8,16.1c-3.8,11.3-11.3,20.2-22.4,26.4
		C159.2,674.4,150.6,676.5,142.1,676.5L142.1,676.5z M102.5,546.7c-2.2,0-4.5,0.7-6.3,2.2c-4.5,3.5-5.6,8.7-2.9,13.5
		c13.3,23.8,26.6,46.9,39.5,68.6c3.1,5.3,9.5,7,14.8,4c3-1.7,6.8-3.9,3.7-19.2l-3.8-19l18.8-4.5c3.3-0.8,6.6-1.6,9.8-2.3
		c7-1.7,13.9-3.3,20.8-4.9c8.7-2,17.3-4,26-6c18.3-4.2,37.2-8.6,55.8-13c1.4-0.3,156-36.4,162.6-37.7c8.1-1.6,16.1-3.5,24.6-5.5
		c2.7-0.6,5.4-1.2,8-1.9c6.1-1.4,12.1-2.8,18.2-4.2c13.3-3,26.9-6.1,40.4-9.3c-26.9-50.4-102.6-180.6-133-228.9
		C342.7,339.7,285.3,401.3,229.6,461l-63.8,68.4c-5.1,5.4-10.3,10.9-15.3,16.2c-2.4,2.5-4.8,5-7.2,7.6l-13.6,14.3l-16.3-15
		c-1.1-1-1.9-1.7-2.7-2.5C108.3,547.8,105.3,546.7,102.5,546.7L102.5,546.7z M387.9,261.4L387.9,261.4L387.9,261.4z"/>
	
		<rect x="129.8" y="533.9" transform="matrix(0.8648 -0.5021 0.5021 0.8648 -268.8126 153.0769)" class="st0" width="40" height="83.7"/>
	<path class="st0" d="M602.1,565.6c-5.1,0-10.3-0.7-15.4-2c-15.2-4.1-28-13.8-35.8-27.5L383.3,245.8c-16.3-28.2-6.6-64.4,21.6-80.6
		c13.6-7.9,29.6-10,44.8-5.9s28,13.9,35.8,27.5L653.1,477c16.3,28.2,6.6,64.4-21.6,80.6C622.4,562.9,612.3,565.6,602.1,565.6z
		 M434.4,197.3c-3.2,0-6.5,0.8-9.5,2.5c-4.4,2.5-7.5,6.6-8.9,11.6c-1.3,4.9-0.6,10,1.9,14.4L585.5,516c2.5,4.4,6.6,7.5,11.5,8.9
		s10,0.6,14.4-1.9c9.1-5.2,12.2-16.9,7-26L450.9,206.8C447.4,200.7,441,197.3,434.4,197.3L434.4,197.3z"/>
	<path class="st0" d="M316.4,684.1c-42.7,0-77.4-34.7-77.4-77.4c0-6.4,0.8-12.7,2.3-18.8l38.8,9.8c-0.7,2.9-1.1,6-1.1,9.1
		c0,20.6,16.8,37.4,37.4,37.4s37.4-16.8,37.4-37.4c0-8.9-3.1-17.4-8.9-24.2l30.5-25.9c11.9,14,18.4,31.8,18.4,50.1
		C393.8,649.4,359.1,684.1,316.4,684.1L316.4,684.1z"/>
</g>
</svg>
