<?xml version="1.0" encoding="utf-8"?>
<!-- Generator: Adobe Illustrator 26.5.3, SVG Export Plug-In . SVG Version: 6.00 Build 0)  -->
<svg version="1.1" id="Fill" xmlns="http://www.w3.org/2000/svg" xmlns:xlink="http://www.w3.org/1999/xlink" x="0px" y="0px"
	 viewBox="0 0 800 800" style="enable-background:new 0 0 800 800;" xml:space="preserve">
<style type="text/css">
	.st0{fill:#235537;}
</style>
<path class="st0" d="M379.2,649.3c-71.3,0-138.3-27.8-188.8-78.2s-78.2-117.5-78.2-188.8S140,244,190.4,193.6s117.5-78.2,188.8-78.2
	s138.3,27.8,188.8,78.2s78.2,117.5,78.2,188.8S618.4,520.7,568,571.1C517.5,621.5,450.5,649.3,379.2,649.3z M379.2,155.4
	c-60.6,0-117.6,23.6-160.5,66.5c-42.9,42.9-66.5,99.9-66.5,160.5s23.6,117.6,66.5,160.5c42.9,42.9,99.9,66.5,160.5,66.5
	s117.6-23.6,160.5-66.5c42.9-42.9,66.5-99.9,66.5-160.5s-23.6-117.6-66.5-160.5S439.8,155.4,379.2,155.4L379.2,155.4z"/>
<path class="st0" d="M544.5,596.7c31,31,62,62,93,93c4.4,4.4,8.9,8.9,13.3,13.3c8.9,8.9,25.2,9.5,33.9,0c8.8-9.6,9.5-24.5,0-33.9
	c-31-31-62-62-93-93c-4.4-4.4-8.9-8.9-13.3-13.3c-8.9-8.9-25.2-9.5-33.9,0C535.7,572.4,535,587.2,544.5,596.7L544.5,596.7z"/>
</svg>
