<?xml version="1.0" encoding="utf-8"?>
<!-- Generator: Adobe Illustrator 26.5.3, SVG Export Plug-In . SVG Version: 6.00 Build 0)  -->
<svg version="1.1" id="Fill" xmlns="http://www.w3.org/2000/svg" xmlns:xlink="http://www.w3.org/1999/xlink" x="0px" y="0px"
	 viewBox="0 0 800 800" style="enable-background:new 0 0 800 800;" xml:space="preserve">
<style type="text/css">
	.st0{fill:#235537;}
</style>
<polygon class="st0" points="497.5,370.6 339.9,258.5 340.4,482.3 "/>
<path class="st0" d="M143.9,661.8c-0.6,2.1-0.1,4.4,1.2,6.2s3.4,2.8,5.6,2.8h42.9c3.2,0,6-2.1,6.8-5.2l20.2-74.2h-57.5L143.9,661.8
	L143.9,661.8z"/>
<path class="st0" d="M606.4,670.7h42.9c2.2,0,4.3-1,5.6-2.8c1.3-1.8,1.8-4,1.2-6.2l-19.2-70.4h-57.5l20.2,74.2
	C600.4,668.6,603.2,670.7,606.4,670.7L606.4,670.7z"/>
<path class="st0" d="M707.5,595.4H77.2V145.3h630.3V595.4L707.5,595.4z M117.2,555.4h550.3V185.3H117.2V555.4L117.2,555.4z"/>
</svg>
