<?xml version="1.0" encoding="utf-8"?>
<!-- Generator: Adobe Illustrator 26.5.3, SVG Export Plug-In . SVG Version: 6.00 Build 0)  -->
<svg version="1.1" id="Layer_3" xmlns="http://www.w3.org/2000/svg" xmlns:xlink="http://www.w3.org/1999/xlink" x="0px" y="0px"
	 viewBox="0 0 800 800" style="enable-background:new 0 0 800 800;" xml:space="preserve">
<style type="text/css">
	.st0{fill:#235537;}
</style>
<path class="st0" d="M400,109.7c-101.8,0-184.6,82.7-184.6,184.5c0,34.8,20.4,95.2,62.4,184.8c39.8,85,86.6,169,104.8,201.2
	l17.4,30.7l17.4-30.7C435.7,648,482.4,564,522.2,479c42-89.6,62.4-150.1,62.4-184.8C584.6,192.5,501.8,109.7,400,109.7L400,109.7z
	 M400,629.4c-74.5-134.8-144.6-283.5-144.6-335.2c0-79.6,64.9-144.5,144.6-144.5s144.6,64.8,144.6,144.5
	C544.6,345.9,474.5,494.6,400,629.4z"/>
<path class="st0" d="M405.9,238.1c-27.7,0-50.1,22.4-50.1,50.2s22.5,50.1,50.1,50.1S456,316,456,288.3S433.5,238.1,405.9,238.1
	L405.9,238.1z"/>
</svg>
