<?xml version="1.0" encoding="utf-8"?>
<!-- Generator: Adobe Illustrator 26.5.3, SVG Export Plug-In . SVG Version: 6.00 Build 0)  -->
<svg version="1.1" id="Layer_3" xmlns="http://www.w3.org/2000/svg" xmlns:xlink="http://www.w3.org/1999/xlink" x="0px" y="0px"
	 viewBox="0 0 800 800" style="enable-background:new 0 0 800 800;" xml:space="preserve">
<style type="text/css">
	.st0{fill:#235537;}
</style>
<path class="st0" d="M400,95.2C231.9,95.2,95.1,231.9,95.1,400S231.9,704.9,400,704.9S704.8,568.1,704.8,400S568.1,95.2,400,95.2z
	 M643.3,295.4H524.6c-9.9-61.8-28.2-114.4-51.8-150.1C549.5,167.3,612.1,223.1,643.3,295.4L643.3,295.4z M664.9,400
	c0,23.4-3,46-8.8,67.6H529.4c2.2-21.8,3.3-44.4,3.3-67.6s-1-43.8-3-64.6h127.2C662.1,356.1,664.9,377.7,664.9,400z M400,664.9
	c-13.4,0-36.6-17.6-57.9-67.3c-11.2-26.1-19.8-56.6-25.7-89.9h167.3c-5.9,33.3-14.5,63.8-25.7,89.9
	C436.7,647.2,413.4,664.9,400,664.9L400,664.9z M310.8,467.6c-2.3-21.8-3.5-44.5-3.5-67.6s1.1-43.7,3.1-64.6h179
	c2.1,20.9,3.1,42.5,3.1,64.6s-1.2,45.8-3.5,67.6H310.8L310.8,467.6z M135.1,400c0-22.3,2.8-43.9,8-64.6h127.2c-2,20.8-3,42.4-3,64.6
	s1.1,45.8,3.3,67.6H143.9C138.2,446,135.1,423.4,135.1,400L135.1,400z M400,135.1c13.4,0,36.6,17.6,57.9,67.4
	c11.5,26.9,20.3,58.4,26.2,92.9H315.8c5.9-34.5,14.7-66.1,26.2-92.9C363.3,152.8,386.6,135.1,400,135.1L400,135.1z M327.2,145.3
	c-23.6,35.7-41.9,88.2-51.8,150.1H156.7C187.9,223.1,250.5,167.3,327.2,145.3L327.2,145.3z M158,507.6h117.9
	c10,60.5,28.1,111.9,51.3,147.1C251.5,633,189.7,578.5,158,507.6L158,507.6z M472.8,654.7c23.2-35.1,41.3-86.5,51.3-147.1H642
	C610.4,578.5,548.5,633,472.8,654.7L472.8,654.7z"/>
</svg>
