<?xml version="1.0" encoding="utf-8"?>
<!-- Generator: Adobe Illustrator 26.5.3, SVG Export Plug-In . SVG Version: 6.00 Build 0)  -->
<svg version="1.1" id="Layer_3" xmlns="http://www.w3.org/2000/svg" xmlns:xlink="http://www.w3.org/1999/xlink" x="0px" y="0px"
	 viewBox="0 0 800 800" style="enable-background:new 0 0 800 800;" xml:space="preserve">
<style type="text/css">
	.st0{fill:#235537;}
</style>
<path class="st0" d="M684.9,345.8c0,76.1-29.6,147.6-83.5,201.5S476.1,630.7,400,630.7s-147.6-29.6-201.5-83.5
	s-83.4-125.4-83.4-201.5h-40c0,86.8,33.8,168.4,95.2,229.8c61.4,61.4,143,95.2,229.8,95.2s168.4-33.8,229.8-95.2
	c61.4-61.4,95.2-143,95.2-229.8L684.9,345.8L684.9,345.8z"/>
<path class="st0" d="M312.8,321.7c27.9,0,50.6-38.6,50.6-86.2s-22.6-86.2-50.6-86.2s-50.6,38.6-50.6,86.2S284.9,321.7,312.8,321.7z"
	/>
<path class="st0" d="M482.5,321.7c27.9,0,50.6-38.6,50.6-86.2s-22.6-86.2-50.6-86.2s-50.6,38.6-50.6,86.2S454.5,321.7,482.5,321.7
	L482.5,321.7z"/>
</svg>
