<?xml version="1.0" encoding="utf-8"?>
<!-- Generator: Adobe Illustrator 26.5.3, SVG Export Plug-In . SVG Version: 6.00 Build 0)  -->
<svg version="1.1" id="Layer_3" xmlns="http://www.w3.org/2000/svg" xmlns:xlink="http://www.w3.org/1999/xlink" x="0px" y="0px"
	 viewBox="0 0 800 800" style="enable-background:new 0 0 800 800;" xml:space="preserve">
<style type="text/css">
	.st0{fill:#235537;}
</style>
<path class="st0" d="M400,268.9c-72.3,0-131.1,58.8-131.1,131.1S327.7,531.1,400,531.1S531.1,472.3,531.1,400S472.3,268.9,400,268.9
	z M400,491.1c-50.2,0-91.1-40.9-91.1-91.1s40.9-91.1,91.1-91.1s91.1,40.9,91.1,91.1S450.2,491.1,400,491.1L400,491.1z"/>
<rect x="380" y="593.2" class="st0" width="40" height="109.6"/>
<rect x="380" y="97.3" class="st0" width="40" height="110.7"/>
<rect x="97.3" y="380" class="st0" width="109.6" height="40"/>
<rect x="592" y="380" class="st0" width="110.7" height="40"/>
<rect x="169.9" y="555.3" transform="matrix(0.7071 -0.7071 0.7071 0.7071 -340.9967 327.381)" class="st0" width="109.6" height="40"/>
<rect x="519.6" y="205.1" transform="matrix(0.7071 -0.7071 0.7071 0.7071 9.2527 472.4542)" class="st0" width="110.7" height="40"/>
<rect x="204.7" y="169.9" transform="matrix(0.7071 -0.7071 0.7071 0.7071 -93.061 224.6768)" class="st0" width="40" height="109.6"/>
<rect x="554.9" y="519.6" transform="matrix(0.7071 -0.7071 0.7071 0.7071 -238.1442 574.9362)" class="st0" width="40" height="110.7"/>
</svg>
