<?xml version="1.0" encoding="utf-8"?>
<!-- Generator: Adobe Illustrator 26.5.3, SVG Export Plug-In . SVG Version: 6.00 Build 0)  -->
<svg version="1.1" id="Layer_3" xmlns="http://www.w3.org/2000/svg" xmlns:xlink="http://www.w3.org/1999/xlink" x="0px" y="0px"
	 viewBox="0 0 800 800" style="enable-background:new 0 0 800 800;" xml:space="preserve">
<style type="text/css">
	.st0{fill:#FF3200;}
</style>
<path class="st0" d="M400.9,114.3C243.8,114.3,116,242.1,116,399.2c0,63.9-1.4,233-1.7,266.3l-0.2,20.3l20.3-0.2
	c57.7-0.5,199.3-1.6,266.4-1.6c157.1,0,284.9-127.8,284.9-284.9S557.9,114.3,400.9,114.3z M400.9,644c-60.3,0-180.6,0.9-246.4,1.5
	c0.5-56.8,1.5-190.9,1.5-246.3c0-135,109.8-244.9,244.9-244.9s244.9,109.9,244.9,244.9S535.9,644,400.9,644L400.9,644z"/>
<path class="st0" d="M297.4,376.9c-18.2,0-32.9,15.3-32.9,34.1s14.7,34.1,32.9,34.1s32.9-15.3,32.9-34.1S315.6,376.9,297.4,376.9
	L297.4,376.9z"/>
<path class="st0" d="M395.1,376.9c-18.2,0-32.9,15.3-32.9,34.1s14.7,34.1,32.9,34.1s32.9-15.3,32.9-34.1S413.3,376.9,395.1,376.9
	L395.1,376.9z"/>
<path class="st0" d="M492.8,376.9c-18.2,0-32.9,15.3-32.9,34.1s14.7,34.1,32.9,34.1s32.9-15.3,32.9-34.1S511,376.9,492.8,376.9
	L492.8,376.9z"/>
</svg>
