<?xml version="1.0" encoding="UTF-8"?>
<svg id="Fill" xmlns="http://www.w3.org/2000/svg" viewBox="0 0 800 800">
  <defs>
    <style>
      .cls-1 {
        fill: #ff3200;
      }
    </style>
  </defs>
  <path class="cls-1" d="M377.3,710.19c-37.91,0-75.76-11.81-111.15-35.23-27.48-18.19-50.55-41.34-68.56-68.8-17.46-26.62-29.3-55.92-35.19-87.07-11.7-61.87,1.55-123.96,37.29-174.84,12.78-18.19,27.78-34.22,42.29-49.72,15.64-16.71,30.41-32.5,42.12-50.34,16.18-24.67,24.73-49.46,25.39-73.67,.73-26.37-4.39-48.84-7.13-60.92-2.25-9.87-4.19-18.39,3.29-26.57h0c3.05-3.33,11.73-10.5,26.54-5,3.26,1.21,7.04,3.08,11.55,5.72,6.92,4.05,14.39,9.22,19.33,12.64,.88,.61,1.67,1.16,2.36,1.63,74.46,51.02,129.51,104.01,168.3,161.99,48.04,71.8,70.53,152.69,63.32,227.78-8.42,87.73-62.17,167.47-136.94,203.14-26.98,12.87-54.91,19.27-82.81,19.27Zm-29.77-575.92c1.4,11.07,2.32,23.76,1.95,37.35-.88,31.74-11.62,63.54-31.93,94.5-13.59,20.72-30.25,38.52-46.36,55.73-14.19,15.16-27.59,29.48-38.76,45.38-29.48,41.97-40.39,93.26-30.72,144.42,9.98,52.79,41.52,100.15,86.52,129.94,25.75,17.05,52.74,26.54,80.22,28.22,25.3,1.55,50.34-3.5,74.44-15,30.02-14.32,56.68-37.82,77.11-67.96,20.85-30.75,33.72-66.33,37.23-102.9,6.33-65.92-13.82-137.56-56.75-201.71-35.1-52.46-85.17-100.91-152.95-147.98Z"/>
</svg>