<?xml version="1.0" encoding="UTF-8"?>
<svg xmlns="http://www.w3.org/2000/svg" viewBox="0 0 800 800">
  <defs>
    <style>
      .cls-1 {
        fill: none;
        stroke: #000;
        stroke-miterlimit: 10;
        stroke-width: 40px;
      }
    </style>
  </defs>
  <g id="Fill">
    <rect x="617.01" y="256.86" width="97.09" height="35.08" transform="translate(-49.35 359.09) rotate(-29.16)"/>
    <rect x="535.21" y="172.9" width="97.09" height="35.09" transform="translate(241.21 700.06) rotate(-74.16)"/>
    <rect x="676.51" y="339.56" width="35.09" height="97.09" transform="translate(131.26 949.88) rotate(-74.16)"/>
  </g>
  <g id="Layer_3" data-name="Layer 3">
    <path class="cls-1" d="M170.83,611.92c4.15,20.52-.3,33.09-13.5,40.55-14.52,8.21-32.94,3.62-41.78-11.23-13.6-22.84-26.85-45.9-39.8-69.12-7.64-13.71-3.94-29.74,8.13-39.1,11.99-9.3,28.93-8.29,40.47,2.42,1.22,1.13,2.45,2.26,4.46,4.1,7.61-8.04,15.07-15.81,22.42-23.69,83.46-89.52,166.88-179.08,250.41-268.54,3.74-4,164.7,273.07,159.33,274.34-27.5,6.54-55.07,12.77-82.63,19.08-11.07,2.54-22.11,5.22-33.24,7.44-5.64,1.12-156.06,36.16-161.85,37.54-27.27,6.48-54.61,12.68-81.91,19.01-10.05,2.33-20.08,4.74-30.51,7.21Z"/>
    <line class="cls-1" x1="128.81" y1="539.55" x2="170.83" y2="611.92"/>
    <rect class="cls-1" x="479.2" y="154.84" width="78.05" height="413.15" rx="39.02" ry="39.02" transform="translate(-111.28 307.53) rotate(-30)"/>
    <path class="cls-1" d="M360.17,569.61c8.51,10.01,13.64,22.97,13.64,37.13,0,31.69-25.69,57.38-57.37,57.38s-57.38-25.69-57.38-57.38c0-4.81,.59-9.47,1.71-13.94"/>
  </g>
</svg>