<?xml version="1.0" encoding="UTF-8"?>
<svg id="Fill" xmlns="http://www.w3.org/2000/svg" viewBox="0 0 800 800">
  <defs>
    <style>
      .cls-1 {
        fill: none;
        stroke: #000;
        stroke-miterlimit: 10;
        stroke-width: 40px;
      }
    </style>
  </defs>
  <polygon points="497.52 370.6 339.89 258.45 340.39 482.27 497.52 370.6"/>
  <path d="M143.86,661.76c-.58,2.13-.14,4.42,1.2,6.17,1.34,1.75,3.42,2.78,5.63,2.78h42.86c3.2,0,5.99-2.14,6.84-5.23l20.23-74.16h-57.54l-19.22,70.43Z"/>
  <path d="M606.44,670.71h42.86c2.22,0,4.29-1.03,5.63-2.78,1.34-1.76,1.79-4.04,1.2-6.17l-19.22-70.43h-57.54l20.23,74.16c.84,3.09,3.64,5.23,6.84,5.23Z"/>
  <rect class="cls-1" x="97.25" y="165.3" width="590.3" height="410.13"/>
</svg>