<?xml version="1.0" encoding="UTF-8"?>
<svg id="Layer_3" data-name="Layer 3" xmlns="http://www.w3.org/2000/svg" viewBox="0 0 800 800">
  <path d="M400,109.71c-101.8,0-184.62,82.75-184.62,184.46,0,34.77,20.41,95.23,62.4,184.83,39.83,85,86.58,169,104.83,201.16l17.4,30.66,17.4-30.66c18.25-32.17,65-116.16,104.83-201.16,41.99-89.6,62.4-150.06,62.4-184.83,0-101.71-82.82-184.46-184.62-184.46Zm0,519.66c-74.54-134.75-144.62-283.48-144.62-335.2,0-79.65,64.88-144.46,144.62-144.46s144.62,64.8,144.62,144.46c0,51.72-70.08,200.45-144.62,335.2Z"/>
  <path d="M405.86,238.14c-27.69,0-50.14,22.45-50.14,50.15s22.45,50.14,50.14,50.14,50.14-22.45,50.14-50.14-22.45-50.15-50.14-50.15Z"/>
</svg>