<?xml version="1.0" encoding="UTF-8"?>
<svg id="Layer_3" data-name="Layer 3" xmlns="http://www.w3.org/2000/svg" viewBox="0 0 800 800">
  <path d="M301.99,127.68c-18.53-21.59-39.21-32.54-61.48-32.54-18.8,0-37.82,9.31-55.01,26.94-15.25,15.63-28.98,37.36-40.81,64.57-24.86,57.21-38.56,132.98-38.56,213.35,0,70.23,12.09,143.09,33.16,199.91,11.32,30.51,24.68,54.88,39.73,72.41,18.52,21.59,39.21,32.54,61.48,32.54,18.8,0,37.82-9.31,55.01-26.94,15.25-15.63,28.98-37.36,40.81-64.57,24.86-57.21,38.56-132.98,38.56-213.35,0-70.23-12.09-143.1-33.16-199.91-11.32-30.51-24.68-54.88-39.73-72.41Zm-61.48,537.17c-21.58,0-45.39-29.48-63.71-78.86-19.2-51.76-30.66-121.29-30.66-186,0-75.01,12.52-145.12,35.24-197.41,21.64-49.78,45.37-67.45,59.13-67.45,21.58,0,45.39,29.48,63.71,78.86,18.13,48.88,29.36,113.6,30.55,175.15-3.13-42.48-24.38-75.35-50.15-75.35-27.93,0-50.57,38.59-50.57,86.2s22.64,86.2,50.57,86.2c25.82,0,47.11-33,50.17-75.6-1.12,71-13.5,136.99-35.15,186.81-21.64,49.78-45.37,67.45-59.13,67.45Z"/>
  <path d="M660.71,200.09c-11.32-30.51-24.68-54.88-39.73-72.41-18.52-21.59-39.21-32.54-61.48-32.54-18.8,0-37.82,9.31-55.01,26.94-15.25,15.63-28.98,37.36-40.81,64.57-24.86,57.21-38.56,132.98-38.56,213.35,0,70.23,12.09,143.09,33.16,199.91,11.32,30.51,24.68,54.88,39.73,72.41,18.53,21.59,39.21,32.54,61.48,32.54,18.8,0,37.82-9.31,55.01-26.94,15.25-15.63,28.98-37.36,40.81-64.57,24.86-57.21,38.56-132.98,38.56-213.35,0-70.23-12.09-143.09-33.16-199.91Zm-42.08,397.31c-21.64,49.78-45.37,67.45-59.13,67.45-21.58,0-45.39-29.48-63.71-78.86-19.2-51.76-30.66-121.29-30.66-186,0-75.01,12.52-145.12,35.24-197.41,21.64-49.78,45.37-67.45,59.13-67.45,21.58,0,45.39,29.48,63.71,78.86,18.03,48.6,29.23,112.86,30.53,174.08-3.41-41.96-24.52-74.28-50.07-74.28-27.93,0-50.57,38.59-50.57,86.2s22.64,86.2,50.57,86.2c25.61,0,46.76-32.45,50.09-74.55-1.23,70.59-13.59,136.18-35.13,185.75Z"/>
</svg>