<?xml version="1.0" encoding="UTF-8"?>
<svg id="Layer_3" data-name="Layer 3" xmlns="http://www.w3.org/2000/svg" viewBox="0 0 800 800">
  <path d="M684.91,345.8c0,76.1-29.64,147.65-83.45,201.46-53.81,53.81-125.36,83.45-201.46,83.45s-147.65-29.64-201.46-83.45c-53.81-53.81-83.45-125.36-83.45-201.46h-40c0,86.79,33.8,168.38,95.16,229.75,61.37,61.37,142.96,95.16,229.75,95.16s168.38-33.8,229.75-95.16c61.37-61.37,95.16-142.96,95.16-229.75h-40Z"/>
  <path d="M312.84,321.69c27.93,0,50.57-38.59,50.57-86.2s-22.64-86.2-50.57-86.2-50.57,38.59-50.57,86.2,22.64,86.2,50.57,86.2Z"/>
  <path d="M482.47,321.69c27.93,0,50.57-38.59,50.57-86.2s-22.64-86.2-50.57-86.2-50.57,38.59-50.57,86.2,22.64,86.2,50.57,86.2Z"/>
</svg>