<?xml version="1.0" encoding="utf-8"?>
<!-- Generator: Adobe Illustrator 28.0.0, SVG Export Plug-In . SVG Version: 6.00 Build 0)  -->
<svg version="1.1" id="Layer_1" xmlns="http://www.w3.org/2000/svg" xmlns:xlink="http://www.w3.org/1999/xlink" x="0px" y="0px"
	 viewBox="0 0 1935.13 1933.81" style="enable-background:new 0 0 1935.13 1933.81;" xml:space="preserve">
<style type="text/css">
	.st0{fill:#E1FF7D;}
	.st1{fill:#235537;}
</style>
<g>
	<circle class="st0" cx="967.4" cy="965.98" r="959.88"/>
</g>
<g>
	<path class="st1" d="M445.34,1293.79l-69.25,101.71l-34.62-25.97l72.49-107.12c-60.59-69.25-90.89-172.04-90.89-292.14
		c0-225.06,108.2-389.52,315.94-389.52c78.99,0,143.91,23.8,193.68,67.08l70.33-102.79l33.54,27.05l-72.49,107.12
		c59.51,69.25,89.81,172.04,89.81,291.06c0,225.06-108.2,389.52-314.86,389.52C560.03,1359.79,495.11,1335.99,445.34,1293.79z
		 M468.06,1183.43l314.86-462.02c-35.71-36.79-83.31-58.43-143.91-58.43c-149.32,0-221.81,129.84-221.81,307.29
		C417.21,1055.75,433.44,1129.32,468.06,1183.43z M639.02,1277.56c148.23,0,220.73-129.84,220.73-307.29
		c0-84.4-16.23-157.97-49.77-212.07L496.2,1220.21C530.82,1257,578.43,1277.56,639.02,1277.56z"/>
	<path class="st1" d="M1039.37,1066.57l94.13-10.82c16.23,138.5,59.51,220.73,182.86,220.73c108.2,0,177.45-73.58,177.45-230.47
		V591.57h93.05v453.36c0,225.06-113.61,314.86-270.5,314.86C1143.24,1359.79,1058.84,1253.76,1039.37,1066.57z"/>
</g>
</svg>
